<svg width="28" height="29" viewBox="0 0 28 29" fill="none" xmlns="http://www.w3.org/2000/svg">
<path d="M9.18932 27.25H17.9393H9.18932ZM22.3143 9.16667C22.3143 7.00074 21.3925 4.92351 19.7514 3.39196C18.1105 1.86042 15.885 1 13.5643 1C11.2437 1 9.01808 1.86042 7.37714 3.39196C5.73621 4.92351 4.81432 7.00074 4.81432 9.16667C4.81432 13.084 3.82821 15.8509 2.66687 17.7513C1.54206 19.5917 0.979664 20.5121 1.00056 20.7511C1.02406 21.0196 1.07705 21.1141 1.29395 21.2742C1.48702 21.4167 2.40462 21.4167 4.23983 21.4167H22.8889C24.7241 21.4167 25.6417 21.4167 25.8347 21.2742C26.0516 21.1141 26.1047 21.0196 26.1282 20.7511C26.149 20.5121 25.5865 19.5917 24.4619 17.7513C23.3004 15.8509 22.3143 13.084 22.3143 9.16667Z" fill="#FEFA8C"/>
<path d="M9.18932 27.25H17.9393M22.3143 9.16667C22.3143 7.00074 21.3925 4.92351 19.7514 3.39196C18.1105 1.86042 15.885 1 13.5643 1C11.2437 1 9.01808 1.86042 7.37714 3.39196C5.73621 4.92351 4.81432 7.00074 4.81432 9.16667C4.81432 13.084 3.82821 15.8509 2.66687 17.7513C1.54206 19.5917 0.979664 20.5121 1.00056 20.7511C1.02406 21.0196 1.07705 21.1141 1.29395 21.2742C1.48702 21.4167 2.40462 21.4167 4.23983 21.4167H22.8889C24.7241 21.4167 25.6417 21.4167 25.8347 21.2742C26.0516 21.1141 26.1047 21.0196 26.1282 20.7511C26.149 20.5121 25.5865 19.5917 24.4619 17.7513C23.3004 15.8509 22.3143 13.084 22.3143 9.16667Z" stroke="#FFEEAC" stroke-width="2" stroke-linecap="round" stroke-linejoin="round"/>
</svg>
