<svg width="13" height="13" viewBox="0 0 13 13" fill="none" xmlns="http://www.w3.org/2000/svg">
<path d="M3.24992 7.58325H9.74992V6.49992H3.24992V7.58325ZM3.24992 5.95825H9.74992V4.87492H3.24992V5.95825ZM3.24992 4.33325H9.74992V3.24992H3.24992V4.33325ZM11.9166 11.9166L9.74992 9.74992H2.16659C1.86867 9.74992 1.61363 9.64384 1.40148 9.43169C1.18933 9.21954 1.08325 8.9645 1.08325 8.66659V2.16659C1.08325 1.86867 1.18933 1.61363 1.40148 1.40148C1.61363 1.18933 1.86867 1.08325 2.16659 1.08325H10.8333C11.1312 1.08325 11.3862 1.18933 11.5984 1.40148C11.8105 1.61363 11.9166 1.86867 11.9166 2.16659V11.9166ZM2.16659 8.66659H10.2103L10.8333 9.27596V2.16659H2.16659V8.66659Z" fill="#1D1B20"/>
</svg>
