<svg
  width="512"
  height="512"
  viewBox="0 0 512 512"
  xmlns="http://www.w3.org/2000/svg"
  fill="#4f46e5"
>
  <!-- 접시 -->
  <ellipse cx="256" cy="340" rx="180" ry="60" />

  <!-- 밥 (둥근 돔 형태) -->
  <path d="M136 310c0-70 60-120 120-120s120 50 120 120" />

  <!-- 카레 (조금 울퉁불퉁한 곡선) -->
  <path d="M156 310c10-35 55-60 100-60s90 25 100 60c-15 25-85 45-100 45s-85-20-100-45z" />

  <!-- 카레 속 재료 (동그라미 3개) -->
  <circle cx="230" cy="300" r="10" />
  <circle cx="280" cy="290" r="8" />
  <circle cx="260" cy="320" r="9" />

  <!-- 숟가락 -->
  <path d="M350 210c40-40 80-40 100-10 10 20 0 40-20 50l-70 30c-10-20-20-40-10-70z" />
</svg>
